<svg height="200" width="200" viewBox="0 0 512 512" xmlns="http://www.w3.org/2000/svg">
  <path d="M200.933,256.804l26.915-5.77c0,0-36.958-26.697-21.334-65.587c38.44,22.168,67.318-29.661,67.318-29.661
    s26.659,44.833,7.943,81.768c-7.124,14.052,28.404,3.972,28.404,3.972C400.943,123.682,245.728,70.055,257.599,0
    c0,0-45.218,47.909-18.332,102.484c13.578,27.569,9.327,49.339-14.796,49.271c-39.447-0.106-2.325-79.827-14.413-64.286
    C151.075,130.136,144.779,233.29,200.933,256.804z"/>
  <path d="M331.212,439.303c-3.543-10.892-16.338-57.734-3.272-103.492c9.952-34.79,3.942-60.298-7.35-53.679
    c2.708-10.621-20.987-14.676-54.868-9.26c-0.135-5.754-0.406-11.095-0.955-16.571c-1.098-10.893-16.346-5.447-17.429,2.181
    c0,0,0.482,8.327,0.993,17.7c-21.1,4.378-69.047,14.992-56.003,23.688c11.915,7.944,67.106,12.307,102.108,0.917
    c-48.015,27.637-93.472,16.512-105.162,13.24c-6.792-1.903-8.485,8.041-6.153,18.596c-0.015-0.023-0.06-0.076-0.06-0.076
    c0.046,0.142,0.12,0.399,0.174,0.579c0.292,1.249,0.639,2.498,1.038,3.732c3.475,13.554,11.028,50.76,5.333,69.769
    c-6.153,20.468,24.252,35.136,29.751-8.342c4.581-2.978,9.2-6.65,13.819-11.268c-4.213,42.11-19.107,53.664-33.618,53.649
    c-2.167,9.854-5.085,18.874-8.861,25.862c-0.106,0.196-0.166,0.391-0.264,0.587c-17.85,3.288-38.371,19.325-20.43,35.37
    c11.818,10.569,66.587,11.54,112.233,6.793c7.274-0.414,14.751-1.407,22.304-2.912c23.808-3.836,41.568-9.365,43.012-15.864
    C357.013,485.099,334.747,450.195,331.212,439.303z"/>
</svg>
